<?xml version="1.0" encoding="UTF-8" standalone="no"?>
<!-- Created with Inkscape (http://www.inkscape.org/) -->

<svg
   width="160"
   height="272"
   viewBox="0 0 42.333329 71.966658"
   version="1.1"
   id="svg1"
   inkscape:version="1.4.4 (dcaf3e7, 2026-05-05)"
   sodipodi:docname="0x007A.svg"
   xmlns:inkscape="http://www.inkscape.org/namespaces/inkscape"
   xmlns:sodipodi="http://sodipodi.sourceforge.net/DTD/sodipodi-0.dtd"
   xmlns="http://www.w3.org/2000/svg"
   xmlns:svg="http://www.w3.org/2000/svg">
  <sodipodi:namedview
     id="namedview1"
     pagecolor="#505050"
     bordercolor="#eeeeee"
     borderopacity="1"
     inkscape:showpageshadow="0"
     inkscape:pageopacity="0"
     inkscape:pagecheckerboard="0"
     inkscape:deskcolor="#505050"
     inkscape:document-units="mm"
     inkscape:zoom="3.3046875"
     inkscape:cx="86.543735"
     inkscape:cy="99.858156"
     inkscape:window-width="1920"
     inkscape:window-height="1055"
     inkscape:window-x="-7"
     inkscape:window-y="-7"
     inkscape:window-maximized="1"
     inkscape:current-layer="layer1"
     showgrid="true">
    <inkscape:grid
       id="grid1"
       units="px"
       originx="0"
       originy="0"
       spacingx="0.52916667"
       spacingy="0.52916667"
       empcolor="#efea07"
       empopacity="0.30196078"
       color="#c4e500"
       opacity="0.14901961"
       empspacing="8"
       dotted="false"
       gridanglex="30"
       gridanglez="30"
       visible="true" />
  </sodipodi:namedview>
  <defs
     id="defs1" />
  <g
     inkscape:label="Ebene 1"
     inkscape:groupmode="layer"
     id="layer1">
    <path
       id="path18"
       style="fill-opacity:0.804233;stroke-width:0.656145"
       d="m 4.2333386,16.933336 c 0,2.822222 0,5.644445 0,8.466667 8.4666664,0 16.9333334,0 25.4000004,0 0,1.411112 -1e-6,2.822224 -1e-6,4.233336 -8.466671,0 -16.933333,0 -25.400004,0 -1.4e-6,7.055554 -4e-7,14.111107 -7e-7,21.166661 11.2888897,0 22.5777787,0 33.8666677,0 0,-2.822222 0,-5.644445 0,-8.466667 -8.466667,0 -16.933334,0 -25.400001,0 0,-1.411111 0,-2.822222 0,-4.233333 8.466669,2e-6 16.933337,7e-6 25.400006,7e-6 -1e-5,-7.055557 0,-14.111114 0,-21.166671 -11.288889,0 -22.577778,0 -33.8666674,0 z" />
  </g>
</svg>
