<?xml version="1.0" encoding="UTF-8" standalone="no"?>
<!-- Created with Inkscape (http://www.inkscape.org/) -->

<svg
   width="212"
   height="272"
   viewBox="0 0 56.091661 71.966658"
   version="1.1"
   id="svg1"
   inkscape:version="1.4.4 (dcaf3e7, 2026-05-05)"
   sodipodi:docname="0x0040.svg"
   xmlns:inkscape="http://www.inkscape.org/namespaces/inkscape"
   xmlns:sodipodi="http://sodipodi.sourceforge.net/DTD/sodipodi-0.dtd"
   xmlns="http://www.w3.org/2000/svg"
   xmlns:svg="http://www.w3.org/2000/svg">
  <sodipodi:namedview
     id="namedview1"
     pagecolor="#505050"
     bordercolor="#eeeeee"
     borderopacity="1"
     inkscape:showpageshadow="0"
     inkscape:pageopacity="0"
     inkscape:pagecheckerboard="0"
     inkscape:deskcolor="#505050"
     inkscape:document-units="mm"
     inkscape:zoom="3.3046875"
     inkscape:cx="37.522459"
     inkscape:cy="88.359338"
     inkscape:window-width="1920"
     inkscape:window-height="1055"
     inkscape:window-x="-7"
     inkscape:window-y="-7"
     inkscape:window-maximized="1"
     inkscape:current-layer="layer1"
     showgrid="true">
    <inkscape:grid
       id="grid1"
       units="px"
       originx="0"
       originy="0"
       spacingx="0.52916667"
       spacingy="0.52916667"
       empcolor="#efea07"
       empopacity="0.30196078"
       color="#c4e500"
       opacity="0.14901961"
       empspacing="8"
       dotted="false"
       gridanglex="30"
       gridanglez="30"
       visible="true" />
  </sodipodi:namedview>
  <defs
     id="defs1" />
  <g
     inkscape:label="Ebene 1"
     inkscape:groupmode="layer"
     id="layer1">
    <path
       id="path1"
       style="fill-opacity:0.804233;stroke-width:0.495999"
       d="m 4.233334,4.2333341 c -1.2e-6,15.5222209 -2.4e-6,31.0444409 -3.6e-6,46.5666619 15.5222236,-5e-6 31.0444466,-1e-5 46.5666706,-1.5e-5 0,-2.822223 10e-7,-5.644445 10e-7,-8.466668 -12.700001,5e-6 -25.400003,1e-5 -38.100003,1.5e-5 10e-7,-9.877776 10e-7,-19.755551 2e-6,-29.633327 9.877778,-4e-6 19.755557,-8e-6 29.633335,-1.2e-5 -0.0267,5.644444 -0.0534,11.288888 -0.0801,16.933332 -1.384411,2e-6 -2.768822,3e-6 -4.153233,5e-6 0,2.822223 0,5.644445 0,8.466668 4.233335,-2e-6 8.466669,-4e-6 12.700004,-6e-6 0,-11.28889 -10e-7,-22.577779 -10e-7,-33.8666689 -15.522224,5e-6 -31.044448,10e-6 -46.566672,1.5e-5 z M 16.933333,16.933323 c 0,7.055557 0,14.111114 0,21.166671 7.055556,0 14.111112,0 21.166669,0 0,-7.055557 0,-14.111114 0,-21.166671 -7.055557,0 -14.111113,0 -21.166669,0 z m 8.466666,8.466668 c 1.411111,0 2.822223,0 4.233334,0 0,1.411111 0,2.822222 0,4.233333 -1.411111,0 -2.822223,0 -4.233334,0 0,-1.411111 0,-2.822222 0,-4.233333 z" />
  </g>
</svg>
