<?xml version="1.0" encoding="UTF-8" standalone="no"?>
<!-- Created with Inkscape (http://www.inkscape.org/) -->

<svg
   width="144"
   height="272"
   viewBox="0 0 38.099996 71.966658"
   version="1.1"
   id="svg1"
   inkscape:version="1.4.4 (dcaf3e7, 2026-05-05)"
   sodipodi:docname="0x0026.svg"
   xmlns:inkscape="http://www.inkscape.org/namespaces/inkscape"
   xmlns:sodipodi="http://sodipodi.sourceforge.net/DTD/sodipodi-0.dtd"
   xmlns="http://www.w3.org/2000/svg"
   xmlns:svg="http://www.w3.org/2000/svg">
  <sodipodi:namedview
     id="namedview1"
     pagecolor="#505050"
     bordercolor="#eeeeee"
     borderopacity="1"
     inkscape:showpageshadow="0"
     inkscape:pageopacity="0"
     inkscape:pagecheckerboard="0"
     inkscape:deskcolor="#505050"
     inkscape:document-units="mm"
     inkscape:zoom="3.3046875"
     inkscape:cx="9.6832151"
     inkscape:cy="103.48936"
     inkscape:window-width="1920"
     inkscape:window-height="1055"
     inkscape:window-x="-7"
     inkscape:window-y="-7"
     inkscape:window-maximized="1"
     inkscape:current-layer="layer1"
     showgrid="true">
    <inkscape:grid
       id="grid1"
       units="px"
       originx="0"
       originy="0"
       spacingx="0.52916667"
       spacingy="0.52916667"
       empcolor="#efea07"
       empopacity="0.30196078"
       color="#c4e500"
       opacity="0.14901961"
       empspacing="8"
       dotted="false"
       gridanglex="30"
       gridanglez="30"
       visible="true" />
  </sodipodi:namedview>
  <defs
     id="defs1" />
  <g
     inkscape:label="Ebene 1"
     inkscape:groupmode="layer"
     id="layer1">
    <path
       id="rect1"
       style="fill-opacity:0.804233;stroke-width:0.656146"
       d="m 0,-4.2333341 3.1e-6,25.4000021 4.2333309,2e-6 v 4.233333 L 3.1e-6,25.400001 0,50.799999 l 42.333337,2e-6 6e-6,-8.466659 -8.466671,-1e-6 v -8.466668 l 8.466671,1e-6 -3e-6,-12.700004 -8.46667,-1e-6 v 4.233333 l -8.466666,1e-6 V 21.16667 h 4.233334 V -4.2333341 Z M 8.4666667,4.2333341 H 21.16667 l 3e-6,12.7000019 h -4.233337 v 4.233333 h -2e-6 V 16.933336 H 8.4666698 Z M 16.933334,25.400002 h 2e-6 l 2e-6,8.466671 8.466666,0 v 8.466668 l -16.933332,0 v -8.466668 h 8.466664 z"
       sodipodi:nodetypes="ccccccccccccccccccccccccccccccccccccc" />
  </g>
</svg>
