<?xml version="1.0" encoding="UTF-8" standalone="no"?>
<!-- Created with Inkscape (http://www.inkscape.org/) -->

<svg
   width="272"
   height="272"
   viewBox="0 0 71.966659 71.966658"
   version="1.1"
   id="svg1"
   inkscape:version="1.4.4 (dcaf3e7, 2026-05-05)"
   sodipodi:docname="0x0025.svg"
   xmlns:inkscape="http://www.inkscape.org/namespaces/inkscape"
   xmlns:sodipodi="http://sodipodi.sourceforge.net/DTD/sodipodi-0.dtd"
   xmlns="http://www.w3.org/2000/svg"
   xmlns:svg="http://www.w3.org/2000/svg">
  <sodipodi:namedview
     id="namedview1"
     pagecolor="#505050"
     bordercolor="#eeeeee"
     borderopacity="1"
     inkscape:showpageshadow="0"
     inkscape:pageopacity="0"
     inkscape:pagecheckerboard="0"
     inkscape:deskcolor="#505050"
     inkscape:document-units="mm"
     inkscape:zoom="0.82617188"
     inkscape:cx="-534.99764"
     inkscape:cy="123.46099"
     inkscape:window-width="1920"
     inkscape:window-height="1055"
     inkscape:window-x="-7"
     inkscape:window-y="-7"
     inkscape:window-maximized="1"
     inkscape:current-layer="layer1"
     showgrid="true">
    <inkscape:grid
       id="grid1"
       units="px"
       originx="0"
       originy="0"
       spacingx="0.52916667"
       spacingy="0.52916667"
       empcolor="#efea07"
       empopacity="0.30196078"
       color="#c4e500"
       opacity="0.14901961"
       empspacing="8"
       dotted="false"
       gridanglex="30"
       gridanglez="30"
       visible="true" />
  </sodipodi:namedview>
  <defs
     id="defs1" />
  <g
     inkscape:label="Ebene 1"
     inkscape:groupmode="layer"
     id="layer1">
    <path
       id="rect1"
       style="fill-opacity:0.804233;stroke-width:0.429549"
       d="m 25.400004,21.166669 h 4.233333 v 12.700002 h -4.233333 z" />
    <path
       id="path2"
       style="fill-opacity:0.804233;stroke-width:0.429549"
       d="m 33.866672,12.700001 h 4.233333 v 12.700002 h -4.233333 z" />
    <path
       id="path3"
       style="fill-opacity:0.804233;stroke-width:0.248"
       d="m 38.100006,12.700001 h 4.233333 v 4.233335 h -4.233333 z" />
    <path
       id="path5"
       style="fill-opacity:0.804233;stroke-width:0.429549"
       d="m 42.33334,4.2333336 h 4.233333 V 16.933335 H 42.33334 Z" />
    <path
       id="path6"
       style="fill-opacity:0.804233;stroke-width:0.248"
       d="m 46.566674,4.2333336 h 4.233333 v 4.2333336 h -4.233333 z" />
    <path
       id="path7"
       style="fill-opacity:0.804233;stroke-width:0.429549"
       d="m 50.800008,-4.2333346 h 4.233333 V 8.4666672 h -4.233333 z" />
    <path
       id="path12"
       style="fill-opacity:0.804233;stroke-width:0.429549"
       d="m 8.4666667,-8.466668 c 0,4.2333333 0,8.4666666464605 0,12.7000001 4.2333333,0 8.4666673,0 12.7000003,0 0,-4.2333334535395 0,-8.4666668 0,-12.7000001 -4.233333,0 -8.466667,0 -12.7000003,0 z M 12.7,-4.2333348 c 1.411111,0 2.822222,0 4.233333,0 0,1.4111112 0,2.8222223 0,4.2333333464605 -1.411111,0 -2.822222,0 -4.233333,0 C 12.7,-1.4111125 12.7,-2.8222236 12.7,-4.2333348 Z" />
    <path
       id="path15"
       style="fill-opacity:0.804233;stroke-width:0.429549"
       d="m 50.800008,33.866672 c 0,4.233333 0,8.466667 0,12.7 4.233333,0 8.466667,0 12.7,0 0,-4.233333 0,-8.466667 0,-12.7 -4.233333,0 -8.466667,0 -12.7,0 z m 4.233333,4.233333 c 1.411111,0 2.822222,0 4.233333,0 0,1.411111 0,2.822222 0,4.233333 -1.411111,0 -2.822222,0 -4.233333,0 0,-1.411111 0,-2.822222 0,-4.233333 z" />
    <path
       id="path16"
       style="fill-opacity:0.804233;stroke-width:0.248"
       d="m 29.633338,21.166669 h 4.233333 v 4.233335 h -4.233333 z" />
    <path
       id="path17"
       style="fill-opacity:0.804233;stroke-width:0.248"
       d="m 21.166671,29.633337 h 4.233333 v 4.233335 h -4.233333 z" />
    <path
       id="path18"
       style="fill-opacity:0.804233;stroke-width:0.429549"
       d="m 16.933336,29.633338 h 4.233333 V 42.33334 h -4.233333 z" />
    <path
       id="path1"
       style="fill-opacity:0.804233;stroke-width:0.554545"
       d="m 21.166669,21.166671 h 4.233333 V 42.33334 h -4.233333 z" />
    <path
       id="path4"
       style="fill-opacity:0.804233;stroke-width:0.554545"
       d="m 29.633338,12.700002 h 4.233333 v 21.166669 h -4.233333 z" />
    <path
       id="path8"
       style="fill-opacity:0.804233;stroke-width:0.554545"
       d="m 38.100006,4.2333342 h 4.233333 V 25.400003 h -4.233333 z" />
    <path
       id="path9"
       style="fill-opacity:0.804233;stroke-width:0.554545"
       d="m 46.566674,-4.2333341 h 4.233333 V 16.933335 h -4.233333 z" />
    <path
       id="path10"
       style="fill-opacity:0.804233;stroke-width:0.429549"
       d="m 55.033341,-4.2333345 h 4.233333 V 8.4666672 h -4.233333 z" />
    <path
       id="path11"
       style="fill-opacity:0.804233;stroke-width:0.429549"
       d="m 12.700003,29.633338 h 4.233333 V 42.33334 h -4.233333 z" />
    <path
       id="path13"
       style="fill-opacity:0.804233;stroke-width:0.429549"
       d="m 4.2333327,-8.466668 h 4.233333 V 4.2333341 h -4.233333 z" />
    <path
       id="path14"
       style="fill-opacity:0.804233;stroke-width:0.429549"
       d="m 21.16667,-8.466668 h 4.233333 V 4.2333341 H 21.16667 Z" />
    <path
       id="path19"
       style="fill-opacity:0.804233;stroke-width:0.554545"
       d="M 4.2333327,4.2333341 H 25.400001 V 8.4666682 H 4.2333327 Z" />
    <path
       id="path20"
       style="fill-opacity:0.804233;stroke-width:0.554545"
       d="M 4.2333347,-12.700002 H 25.400003 v 4.233334 H 4.2333347 Z" />
    <path
       id="path21"
       style="fill-opacity:0.804233;stroke-width:0.554545"
       d="m 46.566677,29.633339 h 21.166668 v 4.233334 H 46.566677 Z" />
    <path
       id="path22"
       style="fill-opacity:0.804233;stroke-width:0.554545"
       d="m 46.566677,46.566675 h 21.166668 v 4.233334 H 46.566677 Z" />
    <path
       id="path23"
       style="fill-opacity:0.804233;stroke-width:0.429549"
       d="m 46.566675,33.866673 h 4.233333 v 12.700002 h -4.233333 z" />
    <path
       id="path24"
       style="fill-opacity:0.804233;stroke-width:0.429549"
       d="m 63.500012,33.866673 h 4.233333 v 12.700002 h -4.233333 z" />
    <path
       id="path25"
       style="fill-opacity:0.804233;stroke-width:0.744001"
       d="M 4.2333347,38.100007 H 16.933336 V 50.80001 H 4.2333347 Z" />
    <path
       id="path26"
       style="fill-opacity:0.804233;stroke-width:0.744001"
       d="M 55.033343,-12.700003 H 67.733344 V 2.4136144e-7 H 55.033343 Z" />
  </g>
</svg>
