<?xml version="1.0" encoding="UTF-8" standalone="no"?>
<!-- Created with Inkscape (http://www.inkscape.org/) -->

<svg
   width="192"
   height="272"
   viewBox="0 0 50.799995 71.966658"
   version="1.1"
   id="svg1"
   inkscape:version="1.4.4 (dcaf3e7, 2026-05-05)"
   sodipodi:docname="0x002A.svg"
   xmlns:inkscape="http://www.inkscape.org/namespaces/inkscape"
   xmlns:sodipodi="http://sodipodi.sourceforge.net/DTD/sodipodi-0.dtd"
   xmlns="http://www.w3.org/2000/svg"
   xmlns:svg="http://www.w3.org/2000/svg">
  <sodipodi:namedview
     id="namedview1"
     pagecolor="#505050"
     bordercolor="#eeeeee"
     borderopacity="1"
     inkscape:showpageshadow="0"
     inkscape:pageopacity="0"
     inkscape:pagecheckerboard="0"
     inkscape:deskcolor="#505050"
     inkscape:document-units="mm"
     inkscape:zoom="2.3367669"
     inkscape:cx="-189.15023"
     inkscape:cy="44.933878"
     inkscape:window-width="1920"
     inkscape:window-height="1055"
     inkscape:window-x="-7"
     inkscape:window-y="-7"
     inkscape:window-maximized="1"
     inkscape:current-layer="layer1"
     showgrid="true">
    <inkscape:grid
       id="grid1"
       units="px"
       originx="0"
       originy="0"
       spacingx="0.52916667"
       spacingy="0.52916667"
       empcolor="#efea07"
       empopacity="0.30196078"
       color="#c4e500"
       opacity="0.14901961"
       empspacing="8"
       dotted="false"
       gridanglex="30"
       gridanglez="30"
       visible="true" />
  </sodipodi:namedview>
  <defs
     id="defs1" />
  <g
     inkscape:label="Ebene 1"
     inkscape:groupmode="layer"
     id="layer1">
    <path
       id="rect2"
       style="fill:#000000;stroke-width:0.822523"
       d="m 21.16667,-4.2333341 c 0,4.2333333025495 0,8.4666667 0,12.7 -1.411111,0 -2.822223,0 -4.233334,0 0,-2.8222222 0,-5.6444445 0,-8.4666666974505 -4.233333,0 -8.4666665,0 -12.6999997,0 0,2.8222221974505 0,5.6444444974505 0,8.4666666974505 1.4111111,0 2.8222223,0 4.2333334,0 0,2.8222221 0,5.6444451 0,8.4666671 4.2333333,0 8.4666673,0 12.7000003,0 0,1.411111 0,2.822222 0,4.233333 -4.233333,0 -8.466667,0 -12.7000003,0 0,1.411111 0,2.822222 0,4.233333 -1.4111111,0 -2.8222223,0 -4.2333334,0 0,4.233333 0,8.466667 0,12.7 2.8222222,0 5.6444445,0 8.4666667,0 0,-1.411111 0,-2.822222 0,-4.233333 1.411111,0 2.822222,0 4.233333,0 0,-1.411111 0,-2.822222 0,-4.233333 1.411111,0 2.822223,0 4.233334,0 0,4.233333 0,8.466667 0,12.7 2.822222,0 5.644444,0 8.466666,0 0,-4.233333 0,-8.466667 0,-12.7 1.411111,0 2.822223,0 4.233334,0 0,1.411111 0,2.822222 0,4.233333 1.411111,0 2.822222,0 4.233333,0 0,1.411111 0,2.822222 0,4.233333 2.822222,0 5.644445,0 8.466667,0 0,-4.233333 0,-8.466667 0,-12.7 -1.411111,0 -2.822223,0 -4.233334,0 0,-1.411111 0,-2.822222 0,-4.233333 -4.233333,0 -8.466667,0 -12.7,0 0,-1.411111 0,-2.822222 0,-4.233333 4.233333,0 8.466667,0 12.7,0 0,-2.822222 0,-5.644445 0,-8.4666671 1.411111,0 2.822223,0 4.233334,0 0,-2.8222222 0,-5.6444445 0,-8.4666666974505 -4.233333,0 -8.466667,0 -12.7,0 0,2.8222221974505 0,5.6444444974505 0,8.4666666974505 -1.411111,0 -2.822223,0 -4.233334,0 0,-4.2333333 0,-8.4666666974505 0,-12.7 -2.822222,0 -5.644444,0 -8.466666,0 z" />
  </g>
</svg>
