<?xml version="1.0" encoding="UTF-8" standalone="no"?>
<!-- Created with Inkscape (http://www.inkscape.org/) -->

<svg
   width="176"
   height="272"
   viewBox="0 0 46.566662 71.966658"
   version="1.1"
   id="svg1"
   inkscape:version="1.4.4 (dcaf3e7, 2026-05-05)"
   sodipodi:docname="0x0025.svg"
   xmlns:inkscape="http://www.inkscape.org/namespaces/inkscape"
   xmlns:sodipodi="http://sodipodi.sourceforge.net/DTD/sodipodi-0.dtd"
   xmlns="http://www.w3.org/2000/svg"
   xmlns:svg="http://www.w3.org/2000/svg">
  <sodipodi:namedview
     id="namedview1"
     pagecolor="#505050"
     bordercolor="#eeeeee"
     borderopacity="1"
     inkscape:showpageshadow="0"
     inkscape:pageopacity="0"
     inkscape:pagecheckerboard="0"
     inkscape:deskcolor="#505050"
     inkscape:document-units="mm"
     inkscape:zoom="0.82617188"
     inkscape:cx="-534.99764"
     inkscape:cy="123.46099"
     inkscape:window-width="1920"
     inkscape:window-height="1055"
     inkscape:window-x="-7"
     inkscape:window-y="-7"
     inkscape:window-maximized="1"
     inkscape:current-layer="layer1"
     showgrid="true">
    <inkscape:grid
       id="grid1"
       units="px"
       originx="0"
       originy="0"
       spacingx="0.52916667"
       spacingy="0.52916667"
       empcolor="#efea07"
       empopacity="0.30196078"
       color="#c4e500"
       opacity="0.14901961"
       empspacing="8"
       dotted="false"
       gridanglex="30"
       gridanglez="30"
       visible="true" />
  </sodipodi:namedview>
  <defs
     id="defs1" />
  <g
     inkscape:label="Ebene 1"
     inkscape:groupmode="layer"
     id="layer1">
    <path
       id="rect1"
       style="fill-opacity:0.804233;stroke-width:0.429549"
       d="m 12.700001,25.400003 h 4.233333 v 12.700002 h -4.233333 z" />
    <path
       id="path2"
       style="fill-opacity:0.804233;stroke-width:0.429549"
       d="m 21.166669,16.933335 h 4.233333 v 12.700002 h -4.233333 z" />
    <path
       id="path3"
       style="fill-opacity:0.804233;stroke-width:0.248"
       d="m 25.400003,16.933335 h 4.233333 v 4.233335 h -4.233333 z" />
    <path
       id="path5"
       style="fill-opacity:0.804233;stroke-width:0.429549"
       d="M 29.633337,8.4666674 H 33.86667 V 21.166669 h -4.233333 z" />
    <path
       id="path6"
       style="fill-opacity:0.804233;stroke-width:0.248"
       d="m 33.866671,8.4666674 h 4.233333 v 4.2333336 h -4.233333 z" />
    <path
       id="path7"
       style="fill-opacity:0.804233;stroke-width:0.429549"
       d="m 38.100005,-8e-7 h 4.233333 V 12.700001 h -4.233333 z" />
    <path
       id="path12"
       style="fill-opacity:0.804233;stroke-width:0.429549"
       d="m 4.233334,0 c 0,4.2333333 0,8.4666667 0,12.7 4.2333332,0 8.466667,0 12.7,0 0,-4.2333333 0,-8.4666667 0,-12.7 -4.233333,0 -8.4666668,0 -12.7,0 z m 4.2333332,4.2333332 c 1.411111,0 2.8222218,0 4.2333328,0 0,1.4111112 0,2.8222223 0,4.2333334 -1.411111,0 -2.8222218,0 -4.2333328,0 0,-1.4111111 0,-2.8222222 0,-4.2333334 z" />
    <path
       id="path15"
       style="fill-opacity:0.804233;stroke-width:0.429549"
       d="m 29.633337,33.866672 c 0,4.233333 0,8.466667 0,12.7 4.233333,0 8.466667,0 12.7,0 0,-4.233333 0,-8.466667 0,-12.7 -4.233333,0 -8.466667,0 -12.7,0 z m 4.233333,4.233333 c 1.411111,0 2.822222,0 4.233333,0 0,1.411111 0,2.822222 0,4.233333 -1.411111,0 -2.822222,0 -4.233333,0 0,-1.411111 0,-2.822222 0,-4.233333 z" />
    <path
       id="path16"
       style="fill-opacity:0.804233;stroke-width:0.248"
       d="m 16.933335,25.400003 h 4.233333 v 4.233335 h -4.233333 z" />
    <path
       id="path17"
       style="fill-opacity:0.804233;stroke-width:0.248"
       d="m 8.4666683,33.866671 h 4.2333327 v 4.233335 H 8.4666683 Z" />
    <path
       id="path18"
       style="fill-opacity:0.804233;stroke-width:0.429549"
       d="M 4.2333332,33.866672 H 8.466666 V 46.566674 H 4.2333332 Z" />
  </g>
</svg>
