<?xml version="1.0" encoding="UTF-8" standalone="no"?>
<!-- Created with Inkscape (http://www.inkscape.org/) -->

<svg
   width="112"
   height="272"
   viewBox="0 0 29.63333 71.966658"
   version="1.1"
   id="svg1"
   inkscape:version="1.4.4 (dcaf3e7, 2026-05-05)"
   sodipodi:docname="0x005E.svg"
   xmlns:inkscape="http://www.inkscape.org/namespaces/inkscape"
   xmlns:sodipodi="http://sodipodi.sourceforge.net/DTD/sodipodi-0.dtd"
   xmlns="http://www.w3.org/2000/svg"
   xmlns:svg="http://www.w3.org/2000/svg">
  <sodipodi:namedview
     id="namedview1"
     pagecolor="#505050"
     bordercolor="#eeeeee"
     borderopacity="1"
     inkscape:showpageshadow="0"
     inkscape:pageopacity="0"
     inkscape:pagecheckerboard="0"
     inkscape:deskcolor="#505050"
     inkscape:document-units="mm"
     inkscape:zoom="3.3046875"
     inkscape:cx="59.309693"
     inkscape:cy="66.723404"
     inkscape:window-width="1920"
     inkscape:window-height="1055"
     inkscape:window-x="-7"
     inkscape:window-y="-7"
     inkscape:window-maximized="1"
     inkscape:current-layer="layer1"
     showgrid="true">
    <inkscape:grid
       id="grid1"
       units="px"
       originx="0"
       originy="0"
       spacingx="0.52916667"
       spacingy="0.52916667"
       empcolor="#efea07"
       empopacity="0.30196078"
       color="#c4e500"
       opacity="0.14901961"
       empspacing="8"
       dotted="false"
       gridanglex="30"
       gridanglez="30"
       visible="true" />
  </sodipodi:namedview>
  <defs
     id="defs1" />
  <g
     inkscape:label="Ebene 1"
     inkscape:groupmode="layer"
     id="layer1">
    <path
       id="path5"
       style="fill-opacity:0.804233;stroke-width:0.350725"
       d="m 12.700002,-4.2333341 c 0,1.4111111 0,2.8222223 0,4.2333334025495 -1.411111,0 -2.8222214,0 -4.2333324,0 0,1.4111110974505 0,2.8222218974505 0,4.2333328974505 -1.411111,0 -2.8222222,0 -4.2333333,0 0,2.822222 0,5.644445 0,8.4666668 1.4111111,0 2.8222223,0 4.2333333,0 0,-1.411111 0,-2.8222228 0,-4.2333338 1.411111,0 2.8222214,0 4.2333324,0 0,-1.411111 0,-2.822222 0,-4.233333 1.411111,0 2.822223,0 4.233334,0 0,1.411111 0,2.822222 0,4.233333 1.411111,0 2.822222,0 4.233333,0 0,1.411111 0,2.8222228 0,4.2333338 1.411111,0 2.822222,0 4.233333,0 0,-2.8222218 0,-5.6444448 0,-8.4666668 -1.411111,0 -2.822222,0 -4.233333,0 0,-1.411111 0,-2.8222218 0,-4.2333328974505 -1.411111,0 -2.822222,0 -4.233333,0 0,-1.4111111025495 0,-2.8222223025495 0,-4.2333334025495 -1.411111,0 -2.822223,0 -4.233334,0 z" />
  </g>
</svg>
