<?xml version="1.0" encoding="UTF-8" standalone="no"?>
<!-- Created with Inkscape (http://www.inkscape.org/) -->

<svg
   width="144"
   height="272"
   viewBox="0 0 38.099996 71.966658"
   version="1.1"
   id="svg1"
   inkscape:version="1.4.4 (dcaf3e7, 2026-05-05)"
   sodipodi:docname="0x002A.svg"
   xmlns:inkscape="http://www.inkscape.org/namespaces/inkscape"
   xmlns:sodipodi="http://sodipodi.sourceforge.net/DTD/sodipodi-0.dtd"
   xmlns="http://www.w3.org/2000/svg"
   xmlns:svg="http://www.w3.org/2000/svg">
  <sodipodi:namedview
     id="namedview1"
     pagecolor="#505050"
     bordercolor="#eeeeee"
     borderopacity="1"
     inkscape:showpageshadow="0"
     inkscape:pageopacity="0"
     inkscape:pagecheckerboard="0"
     inkscape:deskcolor="#505050"
     inkscape:document-units="mm"
     inkscape:zoom="2.3367669"
     inkscape:cx="-189.15023"
     inkscape:cy="44.933878"
     inkscape:window-width="1920"
     inkscape:window-height="1055"
     inkscape:window-x="-7"
     inkscape:window-y="-7"
     inkscape:window-maximized="1"
     inkscape:current-layer="layer1"
     showgrid="true">
    <inkscape:grid
       id="grid1"
       units="px"
       originx="0"
       originy="0"
       spacingx="0.52916667"
       spacingy="0.52916667"
       empcolor="#efea07"
       empopacity="0.30196078"
       color="#c4e500"
       opacity="0.14901961"
       empspacing="8"
       dotted="false"
       gridanglex="30"
       gridanglez="30"
       visible="true" />
  </sodipodi:namedview>
  <defs
     id="defs1" />
  <g
     inkscape:label="Ebene 1"
     inkscape:groupmode="layer"
     id="layer1">
    <path
       id="path4"
       style="fill-opacity:0.804233;stroke-width:0.000181838"
       d="M 16.933336,4.2333341 V 16.933334 l -8.4666679,2e-6 V 8.4666698 l -4.2333317,-2.4e-6 V 12.7 v 0 8.466667 l 12.6999996,3e-6 v 4.233333 l -8.4666662,-3e-6 -4.2333358,5e-6 2.4e-6,4.233329 V 38.1 h 4.2333334 v -4.233333 l -1.7e-6,-4.233328 4.2333349,-5e-6 h 4.233333 v 12.7 h 4.233334 v -12.7 h 4.233333 l 4.233335,5e-6 -2e-6,4.233328 V 38.1 h 4.233334 v -8.466666 l 2e-6,-4.233329 -4.233336,-5e-6 -8.466666,3e-6 V 21.16667 l 12.700002,0 v -8.466667 l -2e-6,-3e-6 V 8.4666674 l -4.233332,2.4e-6 v 8.4666662 l -8.466668,-2e-6 V 4.2333341 Z"
       sodipodi:nodetypes="ccccccccccccccccccccccccccccccccccccccccc" />
  </g>
</svg>
