<?xml version="1.0" encoding="UTF-8" standalone="no"?>
<!-- Created with Inkscape (http://www.inkscape.org/) -->

<svg
   width="144"
   height="272"
   viewBox="0 0 38.099996 71.966658"
   version="1.1"
   id="svg1"
   inkscape:version="1.4.4 (dcaf3e7, 2026-05-05)"
   sodipodi:docname="0x0024.svg"
   xmlns:inkscape="http://www.inkscape.org/namespaces/inkscape"
   xmlns:sodipodi="http://sodipodi.sourceforge.net/DTD/sodipodi-0.dtd"
   xmlns="http://www.w3.org/2000/svg"
   xmlns:svg="http://www.w3.org/2000/svg">
  <sodipodi:namedview
     id="namedview1"
     pagecolor="#505050"
     bordercolor="#eeeeee"
     borderopacity="1"
     inkscape:showpageshadow="0"
     inkscape:pageopacity="0"
     inkscape:pagecheckerboard="0"
     inkscape:deskcolor="#505050"
     inkscape:document-units="mm"
     inkscape:zoom="4.6735339"
     inkscape:cx="83.020688"
     inkscape:cy="109.3391"
     inkscape:window-width="1920"
     inkscape:window-height="1055"
     inkscape:window-x="-7"
     inkscape:window-y="-7"
     inkscape:window-maximized="1"
     inkscape:current-layer="layer1"
     showgrid="true">
    <inkscape:grid
       id="grid1"
       units="px"
       originx="0"
       originy="0"
       spacingx="0.52916667"
       spacingy="0.52916667"
       empcolor="#efea07"
       empopacity="0.30196078"
       color="#c4e500"
       opacity="0.14901961"
       empspacing="8"
       dotted="false"
       gridanglex="30"
       gridanglez="30"
       visible="true" />
  </sodipodi:namedview>
  <defs
     id="defs1" />
  <g
     inkscape:label="Ebene 1"
     inkscape:groupmode="layer"
     id="layer1">
    <path
       id="path1"
       style="fill-opacity:0.804233;stroke-width:0.822521"
       d="m 16.933336,-8.4666678 2e-6,8.46666816685647 H 8.466672 V 4.2333337 H 4.2333386 l -2.1e-6,16.9333383 h 4.2333334 v 4.233333 h 8.4666661 l -2e-6,16.933336 H 8.4666682 v 4.233334 h 8.4666658 l 2e-6,8.466668 h 4.233334 l -2e-6,-8.466668 h 8.466666 v -4.233334 h 4.233334 l 2e-6,-16.933336 H 29.633336 V 21.166672 H 21.16667 l 2e-6,-16.9333383 h 8.466666 V 3.6685647e-7 H 21.166672 L 21.16667,-8.4666678 Z M 12.700005,4.2333337 h 4.233333 l -2e-6,16.9333383 h -4.233333 l 2e-6,-4.233336 H 8.466672 V 8.4666663 h 4.233333 z M 21.16667,25.400005 h 4.233333 l 10e-7,4.233335 h 4.233333 l -3e-6,8.466668 h -4.233333 v 4.233333 h -4.233333 z"
       sodipodi:nodetypes="ccccccccccccccccccccccccccccccccccccccccccccccc" />
  </g>
</svg>
